<svg width="145" height="48" viewBox="0 0 145 48" fill="none" xmlns="http://www.w3.org/2000/svg">
<path d="M38.4207 40.0275L39 41H13.3751C10.9573 41 9 39.432 9 37.4986C9 36.5347 9.48933 35.6601 10.2809 35.0242C11.0724 34.3913 12.1662 34 13.3751 34H39L38.4207 34.9725C37.4673 36.5721 37.4673 38.4279 38.4207 40.0275Z" fill="#568A76"/>
<path d="M19.3581 27.2176C26.6585 27.2176 32.5766 21.1247 32.5766 13.6088C32.5766 6.09286 26.6585 0 19.3581 0C12.0578 0 6.13965 6.09286 6.13965 13.6088C6.13965 21.1247 12.0578 27.2176 19.3581 27.2176Z" fill="url(#paint0_linear_59_54)"/>
<path d="M41 41H13.3236C10.9342 41 9 39.4313 9 37.5C9 35.5658 10.9378 34 13.3236 34H41" stroke="#323232" stroke-miterlimit="10"/>
<path d="M9 37H37" stroke="#323232" stroke-miterlimit="10"/>
<path d="M39 34L38.1049 34.9725C36.6317 36.5721 36.6317 38.4307 38.1049 40.0275L39 41" stroke="#323232" stroke-miterlimit="10"/>
<path d="M15.0908 29.9383H24.8016C30.9044 29.9383 35.8521 24.8446 35.8521 18.5615V14.2171C35.8521 11.8929 34.5704 9.87815 32.6979 8.87894C31.6007 8.29245 30.3295 8.15669 29.111 8.35762L23.8838 9.21563L26.1572 10.8502C27.2121 11.605 28.0244 12.7129 28.304 14.0053C28.7471 16.0798 27.9506 18.3171 26.0781 20.0331L15.0908 29.9383Z" fill="#FFF8BB" stroke="#323232" stroke-miterlimit="10"/>
<path d="M31.6485 12.7832C32.1641 12.7832 32.5821 12.3529 32.5821 11.822C32.5821 11.2912 32.1641 10.8608 31.6485 10.8608C31.1328 10.8608 30.7148 11.2912 30.7148 11.822C30.7148 12.3529 31.1328 12.7832 31.6485 12.7832Z" fill="#323232"/>
<path d="M22.7026 29.9382L26.8908 34.25" stroke="#323232" stroke-miterlimit="10"/>
<path d="M26.9907 29.9382L31.1789 34.25" stroke="#323232" stroke-miterlimit="10"/>
<path d="M26.3685 16.8074C27.8085 17.345 28.547 18.985 28.0248 20.4621C27.012 23.3294 24.4116 25.2789 21.4472 25.3875L13.8622 25.6645C13.3347 25.6862 13.0446 25.04 13.398 24.6381L18.4775 18.8329C20.4608 16.563 23.5835 15.7647 26.3685 16.8074Z" fill="#FFCBBB" stroke="#323232" stroke-miterlimit="10"/>
<path d="M27.9348 18.2791L13.3027 25.3115" stroke="#323232" stroke-miterlimit="10"/>
<path d="M63.896 33H57.776V15.768H63.896C69.368 15.768 72.68 19.272 72.68 24.288C72.68 29.304 69.248 33 63.896 33ZM61.424 18.912V29.856H63.704C67.136 29.856 68.936 27.864 68.936 24.288C68.936 20.856 67.136 18.912 63.704 18.912H61.424ZM78.9095 17.208C78.9095 18.336 77.9975 19.176 76.6775 19.176C75.3815 19.176 74.4695 18.336 74.4695 17.208C74.4695 16.032 75.3815 15.192 76.6775 15.192C77.9975 15.192 78.9095 16.032 78.9095 17.208ZM78.3815 33H75.0455V20.184H78.3815V33ZM84.8062 33H81.4702V20.184H84.5422V22.008C85.4782 20.712 86.6782 19.944 88.3822 19.944C90.1342 19.944 91.4782 20.76 92.1262 22.224C93.1342 20.808 94.4302 19.944 96.3502 19.944C98.9422 19.944 100.694 21.648 100.694 24.72V33H97.3822V25.776C97.3822 23.976 96.6142 22.896 95.1502 22.896C93.8302 22.896 92.7502 23.928 92.7502 25.848V33H89.4382V25.776C89.4382 23.976 88.6702 22.896 87.2062 22.896C85.8622 22.896 84.8062 23.928 84.8062 25.848V33ZM116.46 26.592C116.46 30.384 114.228 33.24 110.772 33.24C109.26 33.24 107.964 32.592 107.004 31.344V37.632H103.668V20.184H106.74V22.056C107.724 20.688 109.14 19.944 110.772 19.944C114.228 19.944 116.46 22.824 116.46 26.592ZM113.028 26.592C113.028 24.192 111.66 22.896 110.028 22.896C108.396 22.896 107.028 24.168 107.028 26.592C107.028 29.016 108.396 30.264 110.028 30.264C111.66 30.264 113.028 29.04 113.028 26.592ZM122.078 33H118.718V15.768H122.078V33ZM130.758 33.216C126.918 33.216 124.35 30.552 124.35 26.544C124.35 22.728 127.014 19.944 130.71 19.944C134.766 19.944 137.454 23.232 136.854 27.408H127.758C127.974 29.496 128.982 30.648 130.686 30.648C132.15 30.648 133.134 29.928 133.518 28.656H136.83C136.11 31.56 133.878 33.216 130.758 33.216ZM130.638 22.392C129.078 22.392 128.094 23.4 127.806 25.296H133.326C133.23 23.52 132.222 22.392 130.638 22.392ZM143.12 30.864C143.12 32.184 142.208 33.12 140.888 33.12C139.568 33.12 138.632 32.184 138.632 30.864C138.632 29.52 139.568 28.584 140.888 28.584C142.208 28.584 143.12 29.52 143.12 30.864Z" fill="#323232"/>
<defs>
<linearGradient id="paint0_linear_59_54" x1="6.13965" y1="13.6088" x2="32.5766" y2="13.6088" gradientUnits="userSpaceOnUse">
<stop stop-color="white"/>
<stop offset="1" stop-color="#F28482"/>
</linearGradient>
</defs>
</svg>
